# AST/ASF file generated using VICON BodyLanguage
# -----------------------------------------------
:version 1.10
:name VICON
:units
  mass 1.0
  length 0.45
  angle deg
:documentation
   .ast/.asf automatically generated from VICON data using
   VICON BodyBuilder and BodyLanguage model FoxedUp or BRILLIANT.MOD
:root
   order TX TY TZ RX RY RZ
   axis XYZ
   position 0 0 0  
   orientation 0 0 0 
:bonedata
  begin
     id 1 
     name lhipjoint
     direction 0.627412 -0.730575 0.26947 
     length 2.49821 
     axis 0 0 0  XYZ
  end
  begin
     id 2 
     name lfemur
     direction 0.34202 -0.939693 0  
     length 6.89165  
     axis 0 0 20  XYZ
    dof rx ry rz
    limits (-160.0 20.0)
           (-70.0 70.0)
           (-60.0 70.0)
  end
  begin
     id 3 
     name ltibia
     direction 0.34202 -0.939693 0   
     length 7.91287   
     axis 0 0 20   XYZ
    dof rx
    limits (-10.0 170.0)
  end
  begin
     id 4 
     name lfoot
     direction 0.0941675 -0.258723 0.96135   
     length 2.16919   
     axis -90 7.62852e-016 20   XYZ
    dof rx rz
    limits (-45.0 90.0)
           (-70.0 20.0)
  end
  begin
     id 5 
     name ltoes
     direction 1.5347e-011 -4.21941e-011 1   
     length 1.08535   
     axis -90 7.62852e-016 20   XYZ
    dof rx
    limits (-90.0 20.0)
  end
  begin
     id 6 
     name rhipjoint
     direction -0.614241 -0.740361 0.27308   
     length 2.46519  
     axis 0 0 0  XYZ 
  end
  begin
     id 7 
     name rfemur
     direction -0.34202 -0.939693 0   
     length 7.27512   
     axis 0 0 -20   XYZ
    dof rx ry rz
    limits (-160.0 20.0)
           (-70.0 70.0)
           (-70.0 60.0)
  end
  begin
     id 8 
     name rtibia
     direction -0.34202 -0.939693 0   
     length 7.89523   
     axis 0 0 -20   XYZ
    dof rx
    limits (-10.0 170.0)
 end
 begin
     id 9 
     name rfoot
     direction -0.0860444 -0.236405 0.967837   
     length 2.29534  
     axis -90 -7.62852e-016 -20   XYZ
    dof rx rz
    limits (-45.0 90.0)
           (-20.0 70.0)
  end
  begin
     id 10 
     name rtoes
     direction -1.53608e-011 -4.21861e-011 1   
     length 1.14915   
     axis -90 -7.62852e-016 -20   XYZ
    dof rx
    limits (-90.0 20.0)
  end
  begin
     id 11 
     name lowerback
     direction -0.00734074 0.997215 -0.0742143   
     length 2.13469   
     axis 0 0 0   XYZ
    dof rx ry rz
    limits (-20.0 45.0)
           (-30.0 30.0)
           (-30.0 30.0)
  end
  begin
     id 12 
     name upperback
     direction 0.0285728 0.99958 -0.00488656   
     length 2.13416   
     axis 0 0 0   XYZ
    dof rx ry rz
    limits (-20.0 45.0)
           (-30.0 30.0)
           (-30.0 30.0)
  end
  begin
     id 13 
     name thorax
     direction 0.0316844 0.999056 0.0297249   
     length 2.14463   
     axis 0 0 0   XYZ
    dof rx ry rz
    limits (-20.0 45.0)
           (-30.0 30.0)
           (-30.0 30.0)
  end
  begin
     id 14 
     name lowerneck
     direction -0.0281545 0.996802 0.0747864   
     length 1.79004   
     axis 0 0 0   XYZ
    dof rx ry rz
    limits (-20.0 45.0)
           (-30.0 30.0)
           (-30.0 30.0)
  end
  begin
     id 15 
     name upperneck
     direction -0.00100185 0.982732 -0.185031   
     length 1.79988   
     axis 0 0 0   XYZ
    dof rx ry rz
    limits (-20.0 45.0)
           (-30.0 30.0)
           (-30.0 30.0)
  end
  begin
     id 16
     name head
     direction 0.00403747 0.997539 -0.0700022  
     length 1.81696  
     axis 0 0 0   XYZ
    dof rx ry rz
    limits (-20.0 45.0)
           (-30.0 30.0)
           (-30.0 30.0)
  end
  begin
     id 17 
     name lclavicle
     direction 0.959882 0.242905 -0.140082  
     length 3.87755  
     axis 0 0 0   XYZ
    dof ry rz
    limits (-20.0 10.0)
           (0.0 20.0)
  end
  begin
     id 18 
     name lhumerus
     direction 1 -4.4895e-011 3.76166e-027   
     length 5.14601   
     axis 180 -30 -90   XYZ
    dof rx ry rz
    limits (-60.0 90.0)
           (-90.0 90.0)
           (-90.0 90.0)
  end
  begin
     id 19
     name lradius
     direction 1 -4.48966e-011 -3.24039e-027   
     length 3.64452   
     axis 180 -30 -90   XYZ
    dof rx
    limits (-10.0 170.0)
  end
  begin
     id 20
     name lwrist
     direction 1 -4.48999e-011 2.57119e-027   
     length 1.82226   
     axis -1.61769e-015 90 90   XYZ
    dof ry
    limits (-180.0 0.0)
 end
  begin
     id 21 
     name lhand
     direction 1 -4.48961e-011 5.13984e-027   
     length 0.56228   
     axis -3.27988e-015 90 90   XYZ
    dof rx rz
    limits (-90.0 90.0)
           (-45.0 45.0)
  end
  begin
     id 22 
     name lfingers
     direction 1 -4.48991e-011 1.02836e-026   
     length 0.453325   
     axis -6.5598e-015 90 90   XYZ
    dof rx
    limits (0.0 90.0)
  end
  begin
     id 23
     name lthumb
     direction 0.707107 -6.34956e-011 0.707107   
     length 0.650886   
     axis -90 45 2.19363e-014   XYZ
    dof rx rz
    limits (-45.0 45.0)
           (-45.0 45.0)
  end
  begin
     id 24 
     name rclavicle
     direction -0.929201 0.345171 -0.132073   
     length 3.55416  
     axis 0 0 0   XYZ 
    dof ry rz
    limits (-10.0 20.0)
           (-20.0 0.0)
  end
  begin
     id 25 
     name rhumerus
     direction -1 -4.48979e-011 4.53734e-027  
     length 5.33913   
     axis 180 30 90   XYZ
    dof rx ry rz
    limits (-90.0 60.0)
           (-90.0 90.0)
           (-90.0 90.0)
  end
  begin
     id 26 
     name rradius
     direction -1 -4.4896e-011 -2.24007e-027   
     length 3.56478   
     axis 180 30 90   XYZ
    dof rx
    limits (-10.0 170.0)
  end
  begin
     id 27 
     name rwrist
     direction -1 -4.48923e-011 2.56866e-027   
     length 1.78239   
     axis -1.61769e-015 -90 -90   XYZ
    dof ry
    limits (-180.0 0.0)
  end
  begin
     id 28
     name rhand
     direction -1 -4.48914e-011 5.13667e-027   
     length 0.857474   
     axis -3.27988e-015 -90 -90   XYZ
    dof rx rz
    limits (-90.0 90.0)
           (-45.0 45.0)
  end
  begin
     id 29
     name rfingers
     direction -1 -4.49112e-011 1.02998e-026   
     length 0.691318   
     axis -6.5598e-015 -90 -90   XYZ
    dof rx
    limits (0.0 90.0)
  end
  begin
     id 30
     name rthumb
     direction -0.707107 -6.34979e-011 0.707107   
     length 0.992598   
     axis -90 -45 -2.19363e-014   XYZ
    dof rx rz
    limits (-45.0 45.0)
           (-45.0 45.0)
  end
:hierarchy
  begin
    root lhipjoint rhipjoint lowerback
    lhipjoint lfemur
    lfemur ltibia
    ltibia lfoot
    lfoot ltoes
    rhipjoint rfemur
    rfemur rtibia
    rtibia rfoot
    rfoot rtoes
    lowerback upperback
    upperback thorax
    thorax lowerneck lclavicle rclavicle
    lowerneck upperneck
    upperneck head
    lclavicle lhumerus
    lhumerus lradius
    lradius lwrist
    lwrist lhand lthumb
    lhand lfingers
    rclavicle rhumerus
    rhumerus rradius
    rradius rwrist
    rwrist rhand rthumb
    rhand rfingers
  end

#!OML:ASF F:\VICON\USERDATA\INSTALL\Justin4\Justin4.ASF
:FULLY-SPECIFIED
:DEGREES
348
root 3.15369 17.4271 5.57538 -174.032 -116.295 172.9
lowerback 12.6615 0.596786 1.38199
upperback 2.9973 0.976811 2.21072
thorax -3.96588 0.435535 1.37769
lowerneck -5.23209 1.23323 -8.16712
upperneck 19.1671 1.60614 4.54126
head 6.5704 0.465245 2.92942
rclavicle -5.6107e-014 -3.4191e-014
rhumerus -3.08318 11.7476 -75.0998
rradius 139.854
rwrist -0.330915
rhand -12.2321 17.2406
rfingers 7.12502
rthumb 13.8333 -12.2794
lclavicle -5.6107e-014 -3.4191e-014
lhumerus 4.1785 -22.8873 89.3305
lradius 139.077
lwrist 17.2592
lhand -13.2251 11.7494
lfingers 7.12502
lthumb 12.8762 41.3322
rfemur -7.59191 -2.40012 7.28848
rtibia 49.2564
rfoot -1.23093 -7.1322
rtoes 5.5963
lfemur -21.1508 0.0307673 4.54347
ltibia 59.9325
lfoot 37.3731 -22.802
ltoes -2.6088
349
root 3.22005 17.2705 5.43511 -172.453 -117.691 171.447
lowerback 12.3317 0.275152 1.7159
upperback 2.85302 0.600781 2.39363
thorax -3.92875 0.249159 1.44056
lowerneck -5.1125 1.04367 -8.22455
upperneck 18.6687 1.29067 4.94189
head 6.40495 0.353709 3.038
rclavicle -5.39203e-014 -3.57812e-015
rhumerus -3.61572 11.42 -75.0501
rradius 139.908
rwrist 0.880788
rhand -14.4024 17.7891
rfingers 7.12502
rthumb 11.7411 -11.8618
lclavicle -5.39203e-014 -3.57812e-015
lhumerus 4.12082 -22.7397 89.1563
lradius 139.165
lwrist 16.7614
lhand -11.7005 10.3883
lfingers 7.12502
lthumb 14.3456 39.8726
rfemur -7.02644 -2.02055 8.31201
rtibia 48.5678
rfoot -4.08652 -6.80073
rtoes -14.4852
lfemur -21.6539 -0.288052 5.37407
ltibia 60.3973
lfoot 35.3066 -23.3007
ltoes -10.7314
350
root 3.30081 17.0867 5.28469 -171.128 -119.088 170.288
lowerback 12.6631 0.105104 1.46855
upperback 2.35938 0.404386 2.97199
thorax -4.63254 0.158626 2.22197
lowerneck -5.0953 0.855996 -8.65848
upperneck 18.7234 1.04984 5.12781
head 6.43267 0.221275 3.15618
rclavicle 6.71892e-014 -7.95139e-015
rhumerus -4.44957 11.1993 -74.3236
rradius 140.09
rwrist 1.30519
rhand -15.5548 18.0004
rfingers 7.12502
rthumb 10.6297 -11.7108
lclavicle 6.71892e-014 -7.95139e-015
lhumerus 3.53542 -22.6225 89.8073
lradius 139.404
lwrist 16.861
lhand -10.9762 9.52303
lfingers 7.12502
lthumb 15.0434 38.9565
rfemur -6.49618 -2.70494 9.25196
rtibia 48.344
rfoot -6.52651 -7.07051
rtoes -24.9366
lfemur -22.1697 -0.498141 6.11736
ltibia 60.9869
lfoot 30.6486 -24.2536
ltoes -27.2421
351
root 3.38267 16.9062 5.14117 -170.125 -120.411 169.427
lowerback 12.8688 -0.107583 1.49198
upperback 2.03579 0.166994 3.34712
thorax -5.08123 0.0456934 2.64935
lowerneck -5.32917 0.638711 -9.05585
upperneck 18.7035 0.801428 5.2779
head 6.48371 0.0912892 3.25728
rclavicle -3.99557e-014 -2.14687e-014
rhumerus -4.94379 10.7992 -74.1369
rradius 140.295
rwrist 1.48669
rhand -16.0195 18.1185
rfingers 7.12502
rthumb 10.1813 -11.6152
lclavicle -3.99557e-014 -2.14687e-014
lhumerus 3.15832 -22.5923 90.2095
lradius 139.688
lwrist 16.9556
lhand -11.3498 9.7442
lfingers 7.12502
lthumb 14.6835 39.2042
rfemur -6.27884 -3.30332 9.99703
rtibia 48.479
rfoot -9.51141 -7.1151
rtoes -28.1665
lfemur -22.4814 -1.02804 6.68125
ltibia 61.6561
lfoot 24.4542 -23.1589
ltoes -33.6788
352
root 3.45279 16.7613 5.01781 -169.483 -121.537 169.005
lowerback 12.6525 -0.300221 1.71958
upperback 1.98104 -0.0597553 3.373
thorax -5.01146 -0.0687837 2.58392
lowerneck -5.67187 0.35583 -9.06156
upperneck 18.3432 0.429367 5.50787
head 6.45527 -0.0536314 3.30492
rclavicle -1.59028e-015 2.78299e-015
rhumerus -5.06143 9.97057 -74.3998
rradius 140.548
rwrist 1.57685
rhand -16.2891 18.1873
rfingers 7.12502
rthumb 9.92121 -11.5589
lclavicle -1.59028e-015 2.78299e-015
lhumerus 3.26751 -22.675 90.1371
lradius 139.778
lwrist 16.2881
lhand -11.4684 9.67456
lfingers 7.12502
lthumb 14.5693 39.1429
rfemur -6.2866 -3.78071 10.4691
rtibia 48.7593
rfoot -12.9846 -6.69119
rtoes -28.5713
lfemur -22.5964 -1.86431 6.96862
ltibia 62.1897
lfoot 19.6977 -19.4273
ltoes -33.9206
353
root 3.53486 16.6092 4.90016 -169.001 -122.562 168.795
lowerback 12.6158 -0.377517 1.78299
upperback 1.89782 -0.148689 3.3762
thorax -5.07615 -0.112213 2.56693
lowerneck -6.00417 0.0848389 -8.75461
upperneck 17.931 0.05134 5.64864
head 6.41018 -0.187023 3.26898
rclavicle 2.06835e-013 -3.89618e-014
rhumerus -5.02642 9.06478 -74.5178
rradius 140.616
rwrist 1.5955
rhand -16.4834 18.0934
rfingers 7.12502
rthumb 9.73377 -11.6617
lclavicle 2.06835e-013 -3.89618e-014
lhumerus 3.40738 -23.197 90.2989
lradius 139.839
lwrist 15.6522
lhand -11.5181 9.43213
lfingers 7.12502
lthumb 14.5214 38.9039
rfemur -6.63855 -4.62618 10.7922
rtibia 49.2236
rfoot -15.79 -6.89008
rtoes -30.0943
lfemur -22.7818 -2.7478 7.10222
ltibia 62.7137
lfoot 14.4617 -17.0465
ltoes -35.8718
354
root 3.62923 16.4654 4.782 -168.54 -123.417 168.527
lowerback 12.9714 -0.425129 1.65276
upperback 1.70736 -0.197108 3.54748
thorax -5.47182 -0.130485 2.83965
lowerneck -6.09407 -0.0903185 -8.68546
upperneck 17.4395 -0.176604 5.72592
head 6.2871 -0.272641 3.25949
rclavicle 9.0944e-014 3.20043e-014
rhumerus -5.09821 8.52932 -74.4638
rradius 140.572
rwrist 1.84321
rhand -16.6862 18.0788
rfingers 7.12502
rthumb 9.5381 -11.6853
lclavicle 9.0944e-014 3.20043e-014
lhumerus 3.35063 -23.5426 90.7515
lradius 139.956
lwrist 15.609
lhand -11.9197 9.33263
lfingers 7.12502
lthumb 14.1344 38.8319
rfemur -7.19293 -5.73489 11.1195
rtibia 49.8873
rfoot -18.0519 -7.37242
rtoes -30.1028
lfemur -22.7047 -3.62713 7.09145
ltibia 63.1946
lfoot 6.99648 -15.2723
ltoes -42.4711
355
root 3.72882 16.3377 4.67166 -167.907 -123.924 168.113
lowerback 13.3842 -0.456088 1.41105
upperback 1.46179 -0.227758 3.87272
thorax -5.95825 -0.134418 3.34136
lowerneck -6.09185 -0.197081 -8.88722
upperneck 16.956 -0.283951 5.78437
head 6.14298 -0.321546 3.29742
rclavicle -1.88348e-014 7.95139e-015
rhumerus -5.33644 8.22772 -74.2416
rradius 140.765
rwrist 1.80131
rhand -16.293 18.167
rfingers 7.12502
rthumb 9.91747 -11.5794
lclavicle -1.88348e-014 7.95139e-015
lhumerus 3.28313 -23.3259 91.0698
lradius 139.987
lwrist 15.4641
lhand -12.3712 9.02728
lfingers 7.12502
lthumb 13.6992 38.5564
rfemur -8.09144 -6.84505 11.4696
rtibia 50.8467
rfoot -20.3799 -7.30026
rtoes -27.3654
lfemur -22.5085 -4.56473 7.11614
ltibia 63.7138
lfoot 0.554177 -12.0788
ltoes -45.0363
